<svg width="208" height="84" viewBox="0 0 208 84" fill="none" xmlns="http://www.w3.org/2000/svg">
<path d="M98.5057 35.5455H102.153V47.7159C102.153 48.8409 101.901 49.8182 101.395 50.6477C100.895 51.4773 100.199 52.1165 99.3068 52.5653C98.4148 53.0142 97.3778 53.2386 96.196 53.2386C95.1449 53.2386 94.1903 53.054 93.3324 52.6847C92.4801 52.3097 91.804 51.7415 91.304 50.9801C90.804 50.2131 90.5568 49.25 90.5625 48.0909H94.2358C94.2472 48.5511 94.3409 48.946 94.517 49.2756C94.6989 49.5994 94.946 49.8494 95.2585 50.0256C95.5767 50.196 95.9517 50.2812 96.3835 50.2812C96.8381 50.2812 97.2216 50.1847 97.5341 49.9915C97.8523 49.7926 98.0938 49.5028 98.2585 49.1222C98.4233 48.7415 98.5057 48.2727 98.5057 47.7159V35.5455ZM111.051 53.2557C109.727 53.2557 108.582 52.9744 107.616 52.4119C106.656 51.8437 105.915 51.054 105.392 50.0426C104.869 49.0256 104.608 47.8466 104.608 46.5057C104.608 45.1534 104.869 43.9716 105.392 42.9602C105.915 41.9432 106.656 41.1534 107.616 40.5909C108.582 40.0227 109.727 39.7386 111.051 39.7386C112.375 39.7386 113.517 40.0227 114.477 40.5909C115.443 41.1534 116.188 41.9432 116.71 42.9602C117.233 43.9716 117.494 45.1534 117.494 46.5057C117.494 47.8466 117.233 49.0256 116.71 50.0426C116.188 51.054 115.443 51.8437 114.477 52.4119C113.517 52.9744 112.375 53.2557 111.051 53.2557ZM111.068 50.4432C111.67 50.4432 112.173 50.2727 112.577 49.9318C112.98 49.5852 113.284 49.1136 113.489 48.517C113.699 47.9205 113.804 47.2415 113.804 46.4801C113.804 45.7188 113.699 45.0398 113.489 44.4432C113.284 43.8466 112.98 43.375 112.577 43.0284C112.173 42.6818 111.67 42.5085 111.068 42.5085C110.46 42.5085 109.949 42.6818 109.534 43.0284C109.125 43.375 108.815 43.8466 108.605 44.4432C108.401 45.0398 108.298 45.7188 108.298 46.4801C108.298 47.2415 108.401 47.9205 108.605 48.517C108.815 49.1136 109.125 49.5852 109.534 49.9318C109.949 50.2727 110.46 50.4432 111.068 50.4432ZM119.923 53V35.5455H123.554V42.108H123.665C123.824 41.7557 124.054 41.3977 124.355 41.0341C124.662 40.6648 125.06 40.358 125.548 40.1136C126.043 39.8636 126.656 39.7386 127.389 39.7386C128.344 39.7386 129.224 39.9886 130.031 40.4886C130.838 40.983 131.483 41.7301 131.966 42.7301C132.449 43.7244 132.69 44.9716 132.69 46.4716C132.69 47.9318 132.455 49.1648 131.983 50.1705C131.517 51.1705 130.881 51.929 130.074 52.446C129.273 52.9574 128.375 53.2131 127.381 53.2131C126.676 53.2131 126.077 53.0966 125.582 52.8636C125.094 52.6307 124.693 52.3381 124.381 51.9858C124.068 51.6278 123.83 51.267 123.665 50.9034H123.503V53H119.923ZM123.477 46.4545C123.477 47.233 123.585 47.9119 123.801 48.4915C124.017 49.071 124.33 49.5227 124.739 49.8466C125.148 50.1648 125.645 50.3239 126.23 50.3239C126.821 50.3239 127.321 50.1619 127.73 49.8381C128.139 49.5085 128.449 49.054 128.659 48.4744C128.875 47.8892 128.983 47.2159 128.983 46.4545C128.983 45.6989 128.878 45.0341 128.668 44.4602C128.457 43.8864 128.148 43.4375 127.739 43.1136C127.33 42.7898 126.827 42.6278 126.23 42.6278C125.639 42.6278 125.139 42.7841 124.73 43.0966C124.327 43.4091 124.017 43.8523 123.801 44.4261C123.585 45 123.477 45.6761 123.477 46.4545ZM135.181 53V35.5455H138.871V42.7472H146.363V35.5455H150.045V53H146.363V45.7898H138.871V53H135.181ZM161.414 47.4261V39.9091H165.045V53H161.559V50.6222H161.423C161.127 51.3892 160.636 52.0057 159.948 52.4716C159.266 52.9375 158.434 53.1705 157.451 53.1705C156.576 53.1705 155.806 52.9716 155.141 52.5739C154.477 52.1761 153.957 51.6108 153.582 50.8778C153.212 50.1449 153.025 49.267 153.019 48.2443V39.9091H156.65V47.5966C156.656 48.3693 156.863 48.9801 157.272 49.429C157.681 49.8778 158.229 50.1023 158.917 50.1023C159.354 50.1023 159.763 50.0028 160.144 49.804C160.525 49.5994 160.832 49.2983 161.065 48.9006C161.303 48.5028 161.42 48.0114 161.414 47.4261ZM168.017 53V35.5455H171.648V42.108H171.759C171.918 41.7557 172.148 41.3977 172.449 41.0341C172.756 40.6648 173.153 40.358 173.642 40.1136C174.136 39.8636 174.75 39.7386 175.483 39.7386C176.438 39.7386 177.318 39.9886 178.125 40.4886C178.932 40.983 179.577 41.7301 180.06 42.7301C180.543 43.7244 180.784 44.9716 180.784 46.4716C180.784 47.9318 180.548 49.1648 180.077 50.1705C179.611 51.1705 178.974 51.929 178.168 52.446C177.366 52.9574 176.469 53.2131 175.474 53.2131C174.77 53.2131 174.17 53.0966 173.676 52.8636C173.188 52.6307 172.787 52.3381 172.474 51.9858C172.162 51.6278 171.923 51.267 171.759 50.9034H171.597V53H168.017ZM171.571 46.4545C171.571 47.233 171.679 47.9119 171.895 48.4915C172.111 49.071 172.423 49.5227 172.832 49.8466C173.241 50.1648 173.739 50.3239 174.324 50.3239C174.915 50.3239 175.415 50.1619 175.824 49.8381C176.233 49.5085 176.543 49.054 176.753 48.4744C176.969 47.8892 177.077 47.2159 177.077 46.4545C177.077 45.6989 176.972 45.0341 176.761 44.4602C176.551 43.8864 176.241 43.4375 175.832 43.1136C175.423 42.7898 174.92 42.6278 174.324 42.6278C173.733 42.6278 173.233 42.7841 172.824 43.0966C172.42 43.4091 172.111 43.8523 171.895 44.4261C171.679 45 171.571 45.6761 171.571 46.4545Z" fill="#38BEC9"/>
<rect x="34" y="14" width="46" height="54" rx="5" fill="#38BEC9"/>
<path d="M60.0114 25.0909H67.3068V49.4318C67.3068 51.6818 66.8011 53.6364 65.7898 55.2955C64.7898 56.9545 63.3977 58.233 61.6136 59.1307C59.8295 60.0284 57.7557 60.4773 55.392 60.4773C53.2898 60.4773 51.3807 60.108 49.6648 59.3693C47.9602 58.6193 46.608 57.483 45.608 55.9602C44.608 54.4261 44.1136 52.5 44.125 50.1818H51.4716C51.4943 51.1023 51.6818 51.892 52.0341 52.5511C52.3977 53.1989 52.892 53.6989 53.517 54.0511C54.1534 54.392 54.9034 54.5625 55.767 54.5625C56.6761 54.5625 57.4432 54.3693 58.0682 53.983C58.7045 53.5852 59.1875 53.0057 59.517 52.2443C59.8466 51.483 60.0114 50.5455 60.0114 49.4318V25.0909Z" fill="#F5F5F5"/>
</svg>
